<?xml version="1.0" encoding="UTF-8"?>
<!-- Generated by Pixelmator Pro 3.7 -->
<svg width="3600" height="1408" viewBox="0 0 3600 1408" xmlns="http://www.w3.org/2000/svg">
    <g id="text-1">
        <g id="Group">
            <path id="Path" fill="#0f172a" stroke="none" d="M 177.07222 878.38269 L 74 878.38269 L 190.137711 526.388611 L 320.792664 526.388611 L 436.930359 878.38269 L 333.858154 878.38269 L 256.820129 623.363647 L 254.110245 623.363647 L 177.07222 878.38269 M 157.812714 739.501343 L 351.665924 739.501343 L 351.665924 811.022827 L 157.812714 811.022827 L 157.812714 739.501343 Z M 713.241394 700.304871 L 625.944458 700.304871 C 625.492839 694.949605 623.621745 690.304097 620.331177 686.368347 C 616.976074 682.497091 612.685425 679.496867 607.459229 677.367676 C 602.233032 675.238485 596.490682 674.173889 590.232178 674.173889 C 582.102539 674.173889 575.10201 675.690125 569.230591 678.722595 C 563.423706 681.690572 560.552511 685.916707 560.617004 691.401001 C 560.552511 695.272217 562.262329 698.885376 565.74646 702.240479 C 569.230591 705.531047 576.00529 708.111898 586.070557 709.983032 L 639.6875 719.564331 C 666.721761 724.467977 686.852295 732.758931 700.079102 744.437195 C 713.305868 756.050964 719.983785 771.600505 720.112854 791.085815 C 719.983785 809.86145 714.40271 826.153015 703.369629 839.96051 C 692.336548 853.767965 677.270915 864.41392 658.172729 871.898376 C 639.074544 879.382792 617.330973 883.125 592.942017 883.125 C 552.616414 883.125 521.097931 874.89858 498.386566 858.44574 C 475.610667 841.928365 462.900045 820.152547 460.2547 793.118286 L 554.423035 793.118286 C 555.71344 801.505981 559.875041 807.958069 566.907837 812.474548 C 573.940633 816.991028 582.844523 819.249268 593.619507 819.249268 C 602.329834 819.249268 609.523905 817.765279 615.201721 814.797302 C 620.879578 811.829325 623.78304 807.570943 623.912109 802.022156 C 623.78304 796.989522 621.298971 792.989217 616.4599 790.02124 C 611.556335 787.053263 603.942871 784.665995 593.619507 782.859436 L 546.874084 774.536194 C 519.968831 769.890727 499.80603 760.95459 486.385681 747.727783 C 473.029846 734.565511 466.384186 717.628764 466.4487 696.917542 C 466.384186 678.593567 471.223256 663.044006 480.965912 650.26886 C 490.773102 637.493713 504.806417 627.751058 523.065857 621.040894 C 541.389791 614.330688 563.101095 610.975586 588.199768 610.975586 C 626.331645 610.975586 656.430664 618.879415 678.496826 634.687073 C 700.498494 650.49469 712.080017 672.367289 713.241394 700.304871 Z M 913.966064 614.362976 L 913.966064 683.174561 L 740.049805 683.174561 L 740.049805 614.362976 L 913.966064 614.362976 M 773.729797 551.164673 L 868.575562 551.164673 L 868.575562 793.505371 C 868.575562 797.118571 869.220785 800.183309 870.51123 802.699585 C 871.737061 805.151408 873.672668 806.958008 876.318054 808.119385 C 878.963399 809.345256 882.350749 809.958191 886.480103 809.958191 C 889.31901 809.958191 892.674093 809.603333 896.545349 808.893616 C 900.352112 808.248433 903.19106 807.700012 905.062195 807.248352 L 918.805115 873.930725 C 914.546692 875.156637 908.48173 876.705139 900.610229 878.576233 C 892.803141 880.382833 883.512105 881.576477 872.737122 882.157166 C 850.929057 883.318542 832.63737 881.060323 817.862061 875.382507 C 803.086751 869.704651 791.989156 860.736226 784.569275 848.477234 C 777.149353 836.218241 773.536194 820.862264 773.729797 802.409302 L 773.729797 551.164673 Z M 1078.978394 883.125 C 1050.782756 883.125 1026.522868 877.737488 1006.19873 866.962463 C 985.81014 856.122986 970.163818 840.541178 959.259766 820.217041 C 948.291178 799.892944 942.806885 775.504028 942.806885 747.050293 C 942.806885 719.822469 948.323446 696.014242 959.356567 675.62561 C 970.325114 655.236979 985.842387 639.364827 1005.908386 628.009155 C 1025.974426 616.653442 1049.621379 610.975586 1076.849243 610.975586 C 1096.786174 610.975586 1114.85201 614.072591 1131.046753 620.266602 C 1147.177043 626.460612 1160.952271 635.429036 1172.372437 647.171875 C 1183.857137 658.914673 1192.696533 673.141541 1198.890625 689.852478 C 1205.084635 706.563416 1208.181641 725.403524 1208.181641 746.372803 L 1208.181641 768.342224 L 972.422058 768.342224 L 972.422058 716.177002 L 1120.884766 716.177002 C 1120.755697 708.563558 1118.820068 701.88564 1115.077881 696.14325 C 1111.400146 690.336365 1106.432007 685.787638 1100.173462 682.49707 C 1093.914917 679.271037 1086.849894 677.65802 1078.978394 677.65802 C 1071.300415 677.65802 1064.235352 679.271037 1057.783203 682.49707 C 1051.395671 685.787638 1046.266276 690.304118 1042.39502 696.046509 C 1038.588298 701.788859 1036.555868 708.499023 1036.297729 716.177002 L 1036.297729 772.503784 C 1036.297729 780.956055 1038.072062 788.505025 1041.620728 795.150696 C 1045.169393 801.796326 1050.266561 807.022502 1056.912231 810.829224 C 1063.557821 814.635986 1071.590698 816.539368 1081.010864 816.539368 C 1087.527384 816.539368 1093.495565 815.6038 1098.915405 813.732666 C 1104.399618 811.926107 1109.077352 809.280762 1112.948608 805.796631 C 1116.819865 802.247965 1119.69104 798.021851 1121.562134 793.118286 L 1208.181641 793.118286 C 1205.213623 811.44222 1198.14856 827.346639 1186.98645 840.831543 C 1175.888875 854.251872 1161.210368 864.671997 1142.950928 872.091919 C 1124.691488 879.447306 1103.36731 883.125 1078.978394 883.125 Z M 1246.603882 878.38269 L 1246.603882 614.362976 L 1338.739624 614.362976 L 1338.739624 664.592529 L 1341.546387 664.592529 C 1346.320964 646.010498 1353.966675 632.428833 1364.483521 623.847534 C 1374.935994 615.266235 1387.194987 610.975586 1401.260498 610.975586 C 1405.389893 610.975586 1409.486979 611.298197 1413.551758 611.94342 C 1417.616536 612.524109 1421.552327 613.395142 1425.359131 614.556519 L 1425.359131 695.562561 C 1420.649089 693.949524 1414.87443 692.723633 1408.035156 691.884888 C 1401.13151 691.110636 1395.227865 690.723511 1390.324219 690.723511 C 1381.033285 690.723511 1372.710083 692.820435 1365.354614 697.014282 C 1357.934692 701.143636 1352.09554 706.982788 1347.837158 714.531738 C 1343.643311 722.016154 1341.546387 730.790995 1341.546387 740.856262 L 1341.546387 878.38269 L 1246.603882 878.38269 Z M 1454.877441 878.38269 L 1454.877441 526.388611 L 1702.347534 526.388611 L 1702.347534 603.426636 L 1550.497437 603.426636 L 1550.497437 663.915039 L 1687.249634 663.915039 L 1687.249634 740.856262 L 1550.497437 740.856262 L 1550.497437 878.38269 L 1454.877441 878.38269 Z M 1866.005005 883.125 C 1837.357707 883.125 1812.839722 877.447144 1792.45105 866.091431 C 1772.062378 854.671265 1756.416097 838.734599 1745.512207 818.281433 C 1734.608154 797.828308 1729.156128 774.084595 1729.156128 747.050293 C 1729.156128 720.016032 1734.608154 696.272319 1745.512207 675.819153 C 1756.416097 655.366028 1772.062378 639.461609 1792.45105 628.105896 C 1812.839722 616.685689 1837.357707 610.975586 1866.005005 610.975586 C 1894.652303 610.975586 1919.170247 616.685689 1939.558838 628.105896 C 1959.947428 639.461609 1975.561523 655.366028 1986.401123 675.819153 C 1997.305094 696.272319 2002.75708 720.016032 2002.75708 747.050293 C 2002.75708 774.084595 1997.305094 797.828308 1986.401123 818.281433 C 1975.561523 838.734599 1959.947428 854.671265 1939.558838 866.091431 C 1919.170247 877.447144 1894.652303 883.125 1866.005005 883.125 M 1866.682373 813.055237 C 1874.683024 813.055237 1881.619059 810.377625 1887.490479 805.0224 C 1893.297363 799.602641 1897.813802 791.924642 1901.039795 781.988403 C 1904.265869 771.987671 1905.878906 760.115804 1905.878906 746.372803 C 1905.878906 732.500814 1904.265869 720.628967 1901.039795 710.757263 C 1897.813802 700.821025 1893.297363 693.175293 1887.490479 687.820068 C 1881.619059 682.400309 1874.683024 679.69043 1866.682373 679.69043 C 1858.16569 679.69043 1850.874837 682.400309 1844.809814 687.820068 C 1838.744873 693.175293 1834.099365 700.821025 1830.873291 710.757263 C 1827.711751 720.628967 1826.130981 732.500814 1826.130981 746.372803 C 1826.130981 760.115804 1827.711751 771.987671 1830.873291 781.988403 C 1834.099365 791.924642 1838.744873 799.602641 1844.809814 805.0224 C 1850.874837 810.377625 1858.16569 813.055237 1866.682373 813.055237 Z M 2136.12207 526.388611 L 2136.12207 878.38269 L 2041.276123 878.38269 L 2041.276123 526.388611 L 2136.12207 526.388611 Z M 2279.068115 526.388611 L 2279.068115 878.38269 L 2184.222168 878.38269 L 2184.222168 526.388611 L 2279.068115 526.388611 Z M 2454.339355 883.125 C 2425.691895 883.125 2401.17391 877.447144 2380.7854 866.091431 C 2360.396729 854.671265 2344.750407 838.734599 2333.846436 818.281433 C 2323.006917 797.828308 2317.587158 774.084595 2317.587158 747.050293 C 2317.587158 720.016032 2323.006917 696.272319 2333.846436 675.819153 C 2344.750407 655.366028 2360.396729 639.461609 2380.7854 628.105896 C 2401.17391 616.685689 2425.691895 610.975586 2454.339355 610.975586 C 2482.986654 610.975586 2507.504639 616.685689 2527.893311 628.105896 C 2548.28182 639.461609 2563.92806 655.366028 2574.832031 675.819153 C 2585.736165 696.272319 2591.188232 720.016032 2591.188232 747.050293 C 2591.188232 774.084595 2585.736165 797.828308 2574.832031 818.281433 C 2563.92806 838.734599 2548.28182 854.671265 2527.893311 866.091431 C 2507.504639 877.447144 2482.986654 883.125 2454.339355 883.125 M 2455.016846 813.055237 C 2463.08195 813.055237 2470.017904 810.377625 2475.824707 805.0224 C 2481.696126 799.602641 2486.212646 791.924642 2489.374268 781.988403 C 2492.600342 771.987671 2494.213379 760.115804 2494.213379 746.372803 C 2494.213379 732.500814 2492.600342 720.628967 2489.374268 710.757263 C 2486.212646 700.821025 2481.696126 693.175293 2475.824707 687.820068 C 2470.017904 682.400309 2463.08195 679.69043 2455.016846 679.69043 C 2446.564535 679.69043 2439.305908 682.400309 2433.240967 687.820068 C 2427.176025 693.175293 2422.530518 700.821025 2419.304443 710.757263 C 2416.078369 720.628967 2414.465332 732.500814 2414.465332 746.372803 C 2414.465332 760.115804 2416.078369 771.987671 2419.304443 781.988403 C 2422.530518 791.924642 2427.176025 799.602641 2433.240967 805.0224 C 2439.305908 810.377625 2446.564535 813.055237 2455.016846 813.055237 Z M 2676.355957 878.38269 L 2610.351074 614.362976 L 2705.293701 614.362976 L 2735.489258 775.213684 L 2737.521729 775.213684 L 2771.20166 614.362976 L 2863.337646 614.362976 L 2898.372314 773.858765 L 2900.501465 773.858765 L 2929.342529 614.362976 L 3024.188232 614.362976 L 2958.183594 878.38269 L 2855.788574 878.38269 L 2818.624512 736.791504 L 2815.914795 736.791504 L 2778.750732 878.38269 L 2676.355957 878.38269 Z M 3179.522705 883.125 C 3151.327067 883.125 3127.067057 877.737488 3106.742676 866.962463 C 3086.41862 856.122986 3070.77238 840.541178 3059.803955 820.217041 C 3048.899984 799.892944 3043.447998 775.504028 3043.447998 747.050293 C 3043.447998 719.822469 3048.93221 696.014242 3059.900635 675.62561 C 3070.933838 655.236979 3086.45109 639.364827 3106.452393 628.009155 C 3126.518473 616.653442 3150.197754 610.975586 3177.490234 610.975586 C 3197.427246 610.975586 3215.460856 614.072591 3231.591064 620.266602 C 3247.721273 626.460612 3261.528727 635.429036 3273.013428 647.171875 C 3284.498128 658.914673 3293.305176 673.141541 3299.43457 689.852478 C 3305.628743 706.563416 3308.72583 725.403524 3308.72583 746.372803 L 3308.72583 768.342224 L 3072.966064 768.342224 L 3072.966064 716.177002 L 3221.428711 716.177002 C 3221.364421 708.563558 3219.4611 701.88564 3215.71875 696.14325 C 3211.976563 690.336365 3206.976237 685.787638 3200.717773 682.49707 C 3194.5236 679.271037 3187.458577 677.65802 3179.522705 677.65802 C 3171.844645 677.65802 3164.811849 679.271037 3158.424316 682.49707 C 3151.972168 685.787638 3146.842692 690.304118 3143.035889 696.046509 C 3139.164795 701.788859 3137.132406 708.499023 3136.938721 716.177002 L 3136.938721 772.503784 C 3136.938721 780.956055 3138.713053 788.505025 3142.261719 795.150696 C 3145.810221 801.796326 3150.907308 807.022502 3157.552979 810.829224 C 3164.198812 814.635986 3172.199463 816.539368 3181.554932 816.539368 C 3188.135986 816.539368 3194.136475 815.6038 3199.556396 813.732666 C 3204.976156 811.926107 3209.65389 809.280762 3213.5896 805.796631 C 3217.460856 802.247965 3220.299805 798.021851 3222.106445 793.118286 L 3308.72583 793.118286 C 3305.757731 811.44222 3298.724854 827.346639 3287.627197 840.831543 C 3276.529704 854.251872 3261.818929 864.671997 3243.494873 872.091919 C 3225.235596 879.447306 3203.91154 883.125 3179.522705 883.125 Z M 3347.244629 878.38269 L 3347.244629 614.362976 L 3439.380859 614.362976 L 3439.380859 664.592529 L 3442.090576 664.592529 C 3446.929769 646.010498 3454.575521 632.428833 3465.027832 623.847534 C 3475.544759 615.266235 3487.836019 610.975586 3501.901611 610.975586 C 3506.030843 610.975586 3510.127848 611.298197 3514.192627 611.94342 C 3518.257568 612.524109 3522.193359 613.395142 3526 614.556519 L 3526 695.562561 C 3521.290039 693.949524 3515.483154 692.723633 3508.579346 691.884888 C 3501.740153 691.110636 3495.836507 690.723511 3490.868408 690.723511 C 3481.641846 690.723511 3473.318685 692.820435 3465.898926 697.014282 C 3458.543294 701.143636 3452.73641 706.982788 3448.478271 714.531738 C 3444.219808 722.016154 3442.090576 730.790995 3442.090576 740.856262 L 3442.090576 878.38269 L 3347.244629 878.38269 Z"/>
        </g>
    </g>
</svg>
