<?xml version="1.0" encoding="UTF-8"?>
<!-- Generated by Pixelmator Pro 3.7 -->
<svg width="3600" height="1408" viewBox="0 0 3600 1408" xmlns="http://www.w3.org/2000/svg">
    <path id="Circle" fill="#3b82f6" fill-rule="evenodd" stroke="none" d="M 2764.75 534.25 C 2764.75 494.623535 2732.626465 462.5 2693 462.5 C 2653.373535 462.5 2621.25 494.623535 2621.25 534.25 C 2621.25 573.876404 2653.373535 606 2693 606 C 2732.626465 606 2764.75 573.876404 2764.75 534.25 Z"/>
    <g id="text-1">
        <g id="Group">
            <path id="Path" fill="#0f172a" stroke="none" d="M 176.585342 1010.089355 L 53 1010.089355 L 213.464798 534.449219 L 366.47522 534.449219 L 526.940063 1010.089355 L 403.354675 1010.089355 L 291.670135 654.372803 L 288.008331 654.372803 L 176.585342 1010.089355 M 160.1073 822.945862 L 418.263367 822.945862 L 418.263367 910.174805 L 160.1073 910.174805 L 160.1073 822.945862 Z M 889.58783 762.264771 L 785.357666 765.141907 C 784.311442 757.643941 781.390727 751.017843 776.59552 745.263611 C 771.800313 739.42218 765.566549 734.84495 757.894226 731.531921 C 750.221903 728.218852 741.329 726.562317 731.215515 726.562317 C 718.137675 726.562317 706.977926 729.177897 697.736267 734.409058 C 688.494649 739.727336 683.960999 746.876526 684.135315 755.856628 C 683.960999 762.744283 686.794535 768.760071 692.635925 773.903992 C 698.390157 779.047953 708.808818 783.145671 723.891907 786.197144 L 792.550415 799.274963 C 828.209269 806.075419 854.713643 817.365946 872.063538 833.146545 C 889.50059 848.927104 898.306335 869.808004 898.480774 895.789246 C 898.306335 920.28835 891.069946 941.561605 876.771606 959.609009 C 862.473145 977.743571 842.900004 991.824015 818.052185 1001.850342 C 793.291524 1011.789469 764.999837 1016.759033 733.177124 1016.759033 C 682.173665 1016.759033 642.02478 1006.296794 612.730469 985.372314 C 583.436157 964.360596 566.696554 936.199707 562.511658 900.889648 L 674.588501 898.143311 C 677.116903 911.133911 683.568624 921.02946 693.943665 927.829956 C 704.318787 934.630412 717.527405 938.03064 733.569519 938.03064 C 748.129456 938.03064 759.986654 935.327881 769.141113 929.922363 C 778.295614 924.516846 782.916443 917.324056 783.003601 908.343994 C 782.916443 900.322917 779.385437 893.871195 772.410583 888.988831 C 765.435771 884.106425 754.493998 880.270243 739.585266 877.480286 L 677.465637 865.579529 C 641.632426 859.127787 614.997274 847.096191 597.560181 829.484741 C 580.035929 811.960449 571.361003 789.553792 571.5354 762.264771 C 571.361003 738.463135 577.681925 718.061747 590.498169 701.060608 C 603.401652 684.146627 621.667013 671.199585 645.29425 662.219482 C 669.008647 653.23938 696.951579 648.749329 729.123047 648.749329 C 777.423787 648.749329 815.523804 658.862834 843.423096 679.089844 C 871.322469 699.229696 886.710714 726.954671 889.58783 762.264771 Z M 1155.459839 653.326599 L 1155.459839 737.024597 L 930.521362 737.024597 L 930.521362 653.326599 L 1155.459839 653.326599 M 977.601501 567.928467 L 1091.247681 567.928467 L 1091.247681 897.881714 C 1091.247681 904.856567 1092.337524 910.480021 1094.517212 914.752075 C 1096.784058 919.02417 1100.097087 922.032064 1104.456299 923.775757 C 1108.728434 925.606649 1113.915975 926.522095 1120.018921 926.522095 C 1124.291056 926.522095 1128.868286 926.086182 1133.75061 925.214355 C 1138.633016 924.342489 1142.338379 923.6014 1144.866699 922.991089 L 1161.998779 1004.989014 C 1156.593262 1006.471191 1148.964518 1008.389282 1139.112549 1010.743286 C 1129.260579 1013.097249 1117.534139 1014.579386 1103.933228 1015.189697 C 1077.341675 1016.410319 1054.542684 1013.271647 1035.536255 1005.773682 C 1016.616984 998.275716 1002.144185 986.549276 992.117859 970.59436 C 982.178731 954.639445 977.339945 934.586792 977.601501 910.436401 L 977.601501 567.928467 Z M 1380.267456 1016.759033 C 1342.952108 1016.759033 1310.78068 1009.391866 1283.753174 994.657532 C 1256.812826 979.836039 1236.106283 958.693563 1221.633545 931.230103 C 1207.160726 903.766683 1199.924316 871.072164 1199.924316 833.146545 C 1199.924316 796.26711 1207.160726 764.008504 1221.633545 736.370728 C 1236.193522 708.73291 1256.725708 687.241699 1283.230103 671.897095 C 1309.734416 656.465251 1340.946818 648.749329 1376.86731 648.749329 C 1402.238159 648.749329 1425.429484 652.716268 1446.441284 660.650146 C 1467.54008 668.496826 1485.718221 680.179667 1500.975708 695.698669 C 1516.320353 711.130514 1528.26473 730.180542 1536.808838 752.848755 C 1545.353027 775.516968 1549.625122 801.49823 1549.625122 830.792542 L 1549.625122 859.171387 L 1239.550171 859.171387 L 1239.550171 793.128418 L 1443.956421 793.128418 C 1443.782023 781.096802 1440.904867 770.372986 1435.324951 760.95697 C 1429.745117 751.453756 1422.116414 744.043009 1412.438843 738.724731 C 1402.761271 733.406413 1391.645142 730.747253 1379.090454 730.747253 C 1366.448527 730.747253 1355.070841 733.58077 1344.957397 739.247803 C 1334.93103 744.827677 1326.953532 752.456401 1321.024902 762.133972 C 1315.183512 771.811584 1312.08846 782.796956 1311.739746 795.090088 L 1311.739746 862.179321 C 1311.739746 876.739258 1314.616862 889.468302 1320.371094 900.366455 C 1326.125326 911.264648 1334.233561 919.721659 1344.695801 925.737488 C 1355.24528 931.753235 1367.799967 934.761108 1382.359863 934.761108 C 1392.473389 934.761108 1401.627848 933.409749 1409.823242 930.707031 C 1418.018717 927.917074 1425.03715 923.775757 1430.87854 918.283081 C 1436.80717 912.877563 1441.210042 906.251485 1444.087158 898.404846 L 1548.44812 901.41272 C 1544.088826 924.778442 1534.585612 945.092651 1519.938477 962.355347 C 1505.291341 979.618042 1486.154134 993.001017 1462.526855 1002.504272 C 1438.812419 1012.007446 1411.392619 1016.759033 1380.267456 1016.759033 Z M 1607.821411 1010.089355 L 1607.821411 653.326599 L 1718.198242 653.326599 L 1718.198242 718.454102 L 1721.859985 718.454102 C 1728.398885 694.914022 1738.991862 677.346151 1753.638916 665.750488 C 1768.373291 654.242025 1785.50529 648.487793 1805.034912 648.487793 C 1810.266113 648.487793 1815.671631 648.836528 1821.251465 649.533997 C 1826.831299 650.231506 1832.018758 651.27773 1836.813843 652.672668 L 1836.813843 751.410156 C 1831.408407 749.492106 1824.302856 748.009969 1815.497192 746.963745 C 1806.778605 745.917521 1799.019084 745.394409 1792.218628 745.394409 C 1778.792033 745.394409 1766.673299 748.358704 1755.862427 754.287292 C 1745.138468 760.215922 1736.725016 768.498535 1730.62207 779.135132 C 1724.431885 789.771769 1721.336792 802.195699 1721.336792 816.406921 L 1721.336792 1010.089355 L 1607.821411 1010.089355 Z M 2059.006104 1010.089355 L 1883.240112 1010.089355 L 1883.240112 534.449219 L 2058.744385 534.449219 C 2107.219482 534.449219 2148.981364 543.952433 2184.030029 562.958862 C 2219.078532 581.878133 2246.149577 609.123576 2265.243164 644.69519 C 2284.249512 680.179688 2293.752686 722.638997 2293.752686 772.07312 C 2293.752686 821.594442 2284.293132 864.140951 2265.374023 899.712646 C 2246.367676 935.37146 2219.296631 962.660482 2184.160889 981.579712 C 2149.024984 1000.586141 2107.306722 1010.089355 2059.006104 1010.089355 M 1998.194214 912.005737 L 2054.55957 912.005737 C 2081.238281 912.005737 2103.819255 907.515706 2122.30249 898.535645 C 2140.785889 889.468302 2154.779215 874.646749 2164.282471 854.070984 C 2173.872803 833.582418 2178.667969 806.249797 2178.667969 772.07312 C 2178.667969 737.809245 2173.829183 710.520203 2164.151611 690.205994 C 2154.561279 669.804626 2140.437256 655.113892 2121.779541 646.133789 C 2103.121826 637.066488 2080.192057 632.532837 2052.990234 632.532837 L 1998.194214 632.532837 L 1998.194214 912.005737 Z M 2360.711426 1010.089355 L 2360.711426 653.326599 L 2470.957275 653.326599 L 2470.957275 718.454102 L 2474.618896 718.454102 C 2481.157796 694.914022 2491.794434 677.346151 2506.528809 665.750488 C 2521.175944 654.242025 2538.264323 648.487793 2557.793945 648.487793 C 2563.025065 648.487793 2568.430583 648.836528 2574.010498 649.533997 C 2579.590251 650.231506 2584.777751 651.27773 2589.572998 652.672668 L 2589.572998 751.410156 C 2584.167399 749.492106 2577.105387 748.009969 2568.386963 746.963745 C 2559.668376 745.917521 2551.865316 745.394409 2544.977783 745.394409 C 2531.551025 745.394409 2519.47583 748.358704 2508.752197 754.287292 C 2497.940999 760.215922 2489.483968 768.498535 2483.381104 779.135132 C 2477.278076 789.771769 2474.226563 802.195699 2474.226563 816.406921 L 2474.226563 1010.089355 L 2360.711426 1010.089355 Z M 2635.999268 1010.089355 L 2635.999268 653.326599 L 2749.645508 653.326599 L 2749.645508 1010.089355 L 2635.999268 1010.089355 Z M 3167.612549 653.326599 L 3045.204102 1010.089355 L 2915.210693 1010.089355 L 2793.063965 653.326599 L 2912.594971 653.326599 L 2978.376465 899.058716 L 2982.03833 899.058716 L 3047.950439 653.326599 L 3167.612549 653.326599 Z M 3377.772949 1016.759033 C 3340.45752 1016.759033 3308.286133 1009.391866 3281.258789 994.657532 C 3254.23112 979.836039 3233.480876 958.693563 3219.008057 931.230103 C 3204.5354 903.766683 3197.299072 871.072164 3197.299072 833.146545 C 3197.299072 796.26711 3204.579102 764.008504 3219.13916 736.370728 C 3233.699056 708.73291 3254.187581 687.241699 3280.604736 671.897095 C 3307.109131 656.465251 3338.321533 648.749329 3374.241943 648.749329 C 3399.612874 648.749329 3422.847819 652.716268 3443.946777 660.650146 C 3464.958496 668.496826 3483.136556 680.179667 3498.480957 695.698669 C 3513.825684 711.130514 3525.726563 730.180542 3534.183594 752.848755 C 3542.727865 775.516968 3547 801.49823 3547 830.792542 L 3547 859.171387 L 3237.055664 859.171387 L 3237.055664 793.128418 L 3441.331055 793.128418 C 3441.156738 781.096802 3438.279622 770.372986 3432.699707 760.95697 C 3427.119954 751.453756 3419.534831 744.043009 3409.944336 738.724731 C 3400.266764 733.406413 3389.150635 730.747253 3376.595947 730.747253 C 3363.866781 730.747253 3352.489095 733.58077 3342.462891 739.247803 C 3332.349284 744.827677 3324.371745 752.456401 3318.530273 762.133972 C 3312.601725 771.811584 3309.506673 782.796956 3309.245117 795.090088 L 3309.245117 862.179321 C 3309.245117 876.739258 3312.078613 889.468302 3317.745605 900.366455 C 3323.5 911.264648 3331.651855 919.721659 3342.201172 925.737488 C 3352.750651 931.753235 3365.305339 934.761108 3379.865234 934.761108 C 3389.891602 934.761108 3399.002604 933.409749 3407.198242 930.707031 C 3415.393555 927.917074 3422.455485 923.775757 3428.384033 918.283081 C 3434.225342 912.877563 3438.628174 906.251485 3441.592529 898.404846 L 3545.822754 901.41272 C 3541.463379 924.778442 3532.003825 945.092651 3517.444092 962.355347 C 3502.796956 979.618042 3483.61613 993.001017 3459.901611 1002.504272 C 3436.187256 1012.007446 3408.811035 1016.759033 3377.772949 1016.759033 Z"/>
        </g>
    </g>
</svg>
